{
.appVersion = "895";
copyright = "Copyright 2016 Google Inc. All Rights Reserved.";
customParameters = (
{
name = description;
value = "Data unhinted. Designed by Monotype design team.";
},
{
name = license;
value = "This Font Software is licensed under the SIL Open Font License, Version 1.1. This Font Software is distributed on an \"AS IS\" BASIS, WITHOUT WARRANTIES OR CONDITIONS OF ANY KIND, either express or implied. See the SIL Open Font License for the specific language, permissions and limitations governing your use of this Font Software.";
},
{
name = licenseURL;
value = "http://scripts.sil.org/OFL";
},
{
name = vendorID;
value = GOOG;
},
{
name = panose;
value = (
2,
11,
5,
2,
4,
5,
4,
2,
2,
4
);
},
{
name = unicodeRanges;
value = (
57
);
},
{
name = codePageRanges;
value = (
1252
);
}
);
date = "2016-11-10 10:16:09 +0000";
designer = "Monotype Design Team";
designerURL = "http://www.monotype.com/studio";
familyName = "Noto Sans Inscriptional Pahlavi";
features = (
{
code = "sub g5' [g5 g7 g14 g15 g17 g19 g20 g22 ] by g32 ;\012sub g15' [g14 g17 ] by g31 ;\012sub g5' [g4 g6 g8 g9 g10 g11 g12 g13 g16 g18 g21 ] by g33 ;\012";
name = ccmp;
}
);
fontMaster = (
{
ascender = 2189;
capHeight = 1462;
customParameters = (
{
name = typoAscender;
value = 2189;
},
{
name = typoDescender;
value = -720;
},
{
name = typoLineGap;
value = 0;
},
{
name = winAscent;
value = 2189;
},
{
name = winDescent;
value = 720;
},
{
name = hheaAscender;
value = 2189;
},
{
name = hheaDescender;
value = -720;
},
{
name = underlinePosition;
value = -205;
},
{
name = underlineThickness;
value = 102;
}
);
descender = -720;
id = "AE889829-B3B6-4023-A675-D1BEB04BAC8C";
weightValue = 400;
widthValue = 5;
xHeight = 1098;
}
);
glyphs = (
{
glyphname = .notdef;
lastChange = "2016-11-10 13:51:47 +0000";
layers = (
{
layerId = "AE889829-B3B6-4023-A675-D1BEB04BAC8C";
paths = (
{
closed = 1;
nodes = (
"1034 0 LINE",
"1034 1462 LINE",
"193 1462 LINE",
"193 0 LINE"
);
},
{
closed = 1;
nodes = (
"297 1358 LINE",
"930 1358 LINE",
"930 104 LINE",
"297 104 LINE"
);
}
);
width = 1229;
}
);
note = .notdef;
},
{
glyphname = g4;
lastChange = "2016-11-10 13:51:47 +0000";
layers = (
{
layerId = "AE889829-B3B6-4023-A675-D1BEB04BAC8C";
paths = (
{
closed = 1;
nodes = (
"1269 0 LINE",
"1269 1098 LINE",
"1088 1098 LINE",
"1088 152 LINE",
"691 152 LINE",
"486 1098 LINE",
"300 1098 LINE",
"505 152 LINE",
"30 152 LINE",
"30 0 LINE"
);
}
);
width = 1443;
}
);
note = g4;
},
{
glyphname = g5;
lastChange = "2016-11-10 13:51:47 +0000";
layers = (
{
layerId = "AE889829-B3B6-4023-A675-D1BEB04BAC8C";
paths = (
{
closed = 1;
nodes = (
"1652 -295 LINE",
"1652 688 LINE",
"1471 688 LINE",
"1471 -143 LINE",
"30 -143 LINE",
"30 -295 LINE"
);
}
);
width = 1826;
}
);
note = g5;
},
{
glyphname = g6;
lastChange = "2016-11-10 13:51:47 +0000";
layers = (
{
layerId = "AE889829-B3B6-4023-A675-D1BEB04BAC8C";
paths = (
{
closed = 1;
nodes = (
"1087 0 LINE",
"1023 260 OFFCURVE",
"951 437 OFFCURVE",
"803 700 CURVE SMOOTH",
"563 1118 LINE",
"408 1028 LINE",
"647 610 LINE SMOOTH",
"742 445 OFFCURVE",
"814 293 OFFCURVE",
"862 152 CURVE",
"31 152 LINE",
"31 0 LINE"
);
}
);
width = 1247;
}
);
note = g6;
},
{
glyphname = g7;
lastChange = "2016-11-10 13:51:47 +0000";
layers = (
{
layerId = "AE889829-B3B6-4023-A675-D1BEB04BAC8C";
paths = (
{
closed = 1;
nodes = (
"601 -430 OFFCURVE",
"821 -281 OFFCURVE",
"821 -20 CURVE SMOOTH",
"821 219 OFFCURVE",
"668 398 OFFCURVE",
"387 489 CURVE",
"607 604 OFFCURVE",
"700 707 OFFCURVE",
"700 844 CURVE SMOOTH",
"700 1021 OFFCURVE",
"567 1118 OFFCURVE",
"328 1118 CURVE SMOOTH",
"251 1118 OFFCURVE",
"160 1102 OFFCURVE",
"104 1075 CURVE",
"156 928 LINE",
"191 945 OFFCURVE",
"268 967 OFFCURVE",
"328 967 CURVE SMOOTH",
"453 967 OFFCURVE",
"516 926 OFFCURVE",
"516 844 CURVE SMOOTH",
"516 805 OFFCURVE",
"506 771 OFFCURVE",
"486 742 CURVE SMOOTH",
"446 683 OFFCURVE",
"364 620 OFFCURVE",
"223 545 CURVE",
"223 403 LINE",
"478 339 OFFCURVE",
"633 179 OFFCURVE",
"633 -20 CURVE SMOOTH",
"633 -184 OFFCURVE",
"491 -279 OFFCURVE",
"244 -279 CURVE SMOOTH",
"149 -279 OFFCURVE",
"9 -260 OFFCURVE",
"-51 -244 CURVE",
"-51 -395 LINE",
"16 -414 OFFCURVE",
"151 -430 OFFCURVE",
"236 -430 CURVE SMOOTH"
);
}
);
width = 899;
}
);
note = g7;
},
{
glyphname = g8;
lastChange = "2016-11-10 13:51:47 +0000";
layers = (
{
layerId = "AE889829-B3B6-4023-A675-D1BEB04BAC8C";
paths = (
{
closed = 1;
nodes = (
"1237 -20 OFFCURVE",
"1311 -13 OFFCURVE",
"1391 0 CURVE",
"1391 152 LINE",
"1312 138 OFFCURVE",
"1243 131 OFFCURVE",
"1182 131 CURVE SMOOTH",
"1114 131 OFFCURVE",
"1081 145 OFFCURVE",
"1066 182 CURVE SMOOTH",
"1059 201 OFFCURVE",
"1055 236 OFFCURVE",
"1055 289 CURVE SMOOTH",
"1055 807 LINE",
"1154 762 OFFCURVE",
"1261 739 OFFCURVE",
"1378 739 CURVE SMOOTH",
"1586 739 OFFCURVE",
"1718 853 OFFCURVE",
"1718 1034 CURVE SMOOTH",
"1718 1048 OFFCURVE",
"1715 1069 OFFCURVE",
"1710 1098 CURVE",
"1528 1098 LINE",
"1533 1080 OFFCURVE",
"1536 1060 OFFCURVE",
"1536 1038 CURVE SMOOTH",
"1536 955 OFFCURVE",
"1477 891 OFFCURVE",
"1382 891 CURVE SMOOTH",
"1259 891 OFFCURVE",
"1150 926 OFFCURVE",
"1010 1005 CURVE SMOOTH",
"873 1081 OFFCURVE",
"749 1118 OFFCURVE",
"612 1118 CURVE SMOOTH",
"317 1118 OFFCURVE",
"123 920 OFFCURVE",
"123 608 CURVE SMOOTH",
"123 419 OFFCURVE",
"192 164 OFFCURVE",
"285 0 CURVE",
"469 0 LINE",
"365 203 OFFCURVE",
"305 435 OFFCURVE",
"305 608 CURVE SMOOTH",
"305 844 OFFCURVE",
"422 967 OFFCURVE",
"637 967 CURVE SMOOTH",
"710 967 OFFCURVE",
"789 945 OFFCURVE",
"874 901 CURVE",
"874 299 LINE SMOOTH",
"874 216 OFFCURVE",
"883 153 OFFCURVE",
"901 108 CURVE SMOOTH",
"937 18 OFFCURVE",
"1016 -20 OFFCURVE",
"1169 -20 CURVE SMOOTH"
);
}
);
width = 1759;
}
);
note = g8;
},
{
glyphname = g9;
lastChange = "2016-11-10 13:51:47 +0000";
layers = (
{
layerId = "AE889829-B3B6-4023-A675-D1BEB04BAC8C";
paths = (
{
closed = 1;
nodes = (
"1090 0 LINE",
"1090 152 LINE",
"647 152 LINE",
"883 283 OFFCURVE",
"1001 464 OFFCURVE",
"1001 694 CURVE SMOOTH",
"1001 961 OFFCURVE",
"832 1118 OFFCURVE",
"547 1118 CURVE SMOOTH",
"331 1118 OFFCURVE",
"170 1004 OFFCURVE",
"106 811 CURVE",
"276 750 LINE",
"317 881 OFFCURVE",
"422 967 OFFCURVE",
"547 967 CURVE SMOOTH",
"710 967 OFFCURVE",
"819 857 OFFCURVE",
"819 698 CURVE SMOOTH",
"819 407 OFFCURVE",
"625 218 OFFCURVE",
"238 129 CURVE",
"238 0 LINE"
);
}
);
width = 1184;
}
);
note = g9;
},
{
glyphname = g10;
lastChange = "2016-11-10 13:51:47 +0000";
layers = (
{
layerId = "AE889829-B3B6-4023-A675-D1BEB04BAC8C";
paths = (
{
closed = 1;
nodes = (
"315 -20 OFFCURVE",
"525 41 OFFCURVE",
"717 164 CURVE",
"717 350 LINE",
"599 436 OFFCURVE",
"519 499 OFFCURVE",
"476 539 CURVE SMOOTH",
"391 618 OFFCURVE",
"344 687 OFFCURVE",
"344 778 CURVE SMOOTH",
"344 894 OFFCURVE",
"400 967 OFFCURVE",
"512 967 CURVE SMOOTH",
"561 967 OFFCURVE",
"610 959 OFFCURVE",
"659 942 CURVE",
"705 1090 LINE",
"645 1109 OFFCURVE",
"581 1118 OFFCURVE",
"512 1118 CURVE SMOOTH",
"304 1118 OFFCURVE",
"164 983 OFFCURVE",
"164 772 CURVE SMOOTH",
"164 655 OFFCURVE",
"216 560 OFFCURVE",
"309 464 CURVE SMOOTH",
"356 415 OFFCURVE",
"440 345 OFFCURVE",
"561 254 CURVE",
"406 177 OFFCURVE",
"248 139 OFFCURVE",
"86 139 CURVE",
"86 -20 LINE"
);
}
);
width = 840;
}
);
note = g10;
},
{
glyphname = g11;
lastChange = "2016-11-10 13:51:47 +0000";
layers = (
{
layerId = "AE889829-B3B6-4023-A675-D1BEB04BAC8C";
paths = (
{
closed = 1;
nodes = (
"441 -20 OFFCURVE",
"600 120 OFFCURVE",
"600 348 CURVE SMOOTH",
"600 437 OFFCURVE",
"582 503 OFFCURVE",
"564 561 CURVE SMOOTH",
"546 619 OFFCURVE",
"528 670 OFFCURVE",
"528 737 CURVE SMOOTH",
"528 881 OFFCURVE",
"597 967 OFFCURVE",
"721 967 CURVE SMOOTH",
"844 967 OFFCURVE",
"920 883 OFFCURVE",
"920 739 CURVE SMOOTH",
"920 670 OFFCURVE",
"898 616 OFFCURVE",
"877 558 CURVE SMOOTH",
"856 500 OFFCURVE",
"834 437 OFFCURVE",
"834 350 CURVE SMOOTH",
"834 281 OFFCURVE",
"848 218 OFFCURVE",
"876 162 CURVE SMOOTH",
"932 50 OFFCURVE",
"1039 -18 OFFCURVE",
"1192 -18 CURVE SMOOTH",
"1413 -18 OFFCURVE",
"1546 98 OFFCURVE",
"1546 307 CURVE SMOOTH",
"1546 379 OFFCURVE",
"1528 467 OFFCURVE",
"1501 522 CURVE",
"1317 522 LINE",
"1350 458 OFFCURVE",
"1366 386 OFFCURVE",
"1366 307 CURVE SMOOTH",
"1366 191 OFFCURVE",
"1308 133 OFFCURVE",
"1192 133 CURVE SMOOTH",
"1081 133 OFFCURVE",
"1008 220 OFFCURVE",
"1008 348 CURVE SMOOTH",
"1008 415 OFFCURVE",
"1031 479 OFFCURVE",
"1054 544 CURVE SMOOTH",
"1077 608 OFFCURVE",
"1100 672 OFFCURVE",
"1100 739 CURVE SMOOTH",
"1100 979 OFFCURVE",
"963 1118 OFFCURVE",
"723 1118 CURVE SMOOTH",
"479 1118 OFFCURVE",
"348 978 OFFCURVE",
"348 737 CURVE SMOOTH",
"348 669 OFFCURVE",
"366 611 OFFCURVE",
"384 549 CURVE SMOOTH",
"402 487 OFFCURVE",
"420 421 OFFCURVE",
"420 344 CURVE SMOOTH",
"420 199 OFFCURVE",
"345 131 OFFCURVE",
"182 131 CURVE SMOOTH",
"119 131 OFFCURVE",
"61 140 OFFCURVE",
"10 158 CURVE",
"10 0 LINE",
"62 -13 OFFCURVE",
"119 -20 OFFCURVE",
"182 -20 CURVE SMOOTH"
);
}
);
width = 1632;
}
);
note = g11;
},
{
glyphname = g12;
lastChange = "2016-11-10 13:51:47 +0000";
layers = (
{
layerId = "AE889829-B3B6-4023-A675-D1BEB04BAC8C";
paths = (
{
closed = 1;
nodes = (
"844 0 LINE",
"844 152 LINE",
"369 152 LINE",
"472 248 OFFCURVE",
"547 411 OFFCURVE",
"547 526 CURVE SMOOTH",
"547 631 OFFCURVE",
"507 727 OFFCURVE",
"423 834 CURVE SMOOTH",
"338 941 OFFCURVE",
"299 1026 OFFCURVE",
"299 1122 CURVE SMOOTH",
"299 1324 OFFCURVE",
"407 1425 OFFCURVE",
"623 1425 CURVE SMOOTH",
"690 1425 OFFCURVE",
"769 1408 OFFCURVE",
"860 1374 CURVE",
"915 1518 LINE",
"858 1547 OFFCURVE",
"740 1577 OFFCURVE",
"627 1577 CURVE SMOOTH",
"306 1577 OFFCURVE",
"113 1405 OFFCURVE",
"113 1126 CURVE SMOOTH",
"113 1003 OFFCURVE",
"154 890 OFFCURVE",
"237 788 CURVE SMOOTH",
"326 675 OFFCURVE",
"360 607 OFFCURVE",
"360 526 CURVE SMOOTH",
"360 369 OFFCURVE",
"302 262 OFFCURVE",
"143 121 CURVE",
"143 0 LINE"
);
}
);
width = 895;
}
);
note = g12;
},
{
glyphname = g13;
lastChange = "2016-11-10 13:51:47 +0000";
layers = (
{
layerId = "AE889829-B3B6-4023-A675-D1BEB04BAC8C";
paths = (
{
closed = 1;
nodes = (
"613 113 OFFCURVE",
"864 383 OFFCURVE",
"864 694 CURVE SMOOTH",
"864 961 OFFCURVE",
"693 1118 OFFCURVE",
"397 1118 CURVE SMOOTH",
"234 1118 OFFCURVE",
"108 1078 OFFCURVE",
"-16 987 CURVE",
"74 854 LINE",
"166 929 OFFCURVE",
"272 967 OFFCURVE",
"393 967 CURVE SMOOTH",
"564 967 OFFCURVE",
"678 861 OFFCURVE",
"678 698 CURVE SMOOTH",
"678 458 OFFCURVE",
"527 292 OFFCURVE",
"186 145 CURVE",
"186 -20 LINE"
);
}
);
width = 997;
}
);
note = g13;
},
{
glyphname = g14;
lastChange = "2016-11-10 13:51:47 +0000";
layers = (
{
layerId = "AE889829-B3B6-4023-A675-D1BEB04BAC8C";
paths = (
{
closed = 1;
nodes = (
"901 -492 LINE",
"901 -340 LINE",
"459 -340 LINE",
"618 -260 OFFCURVE",
"731 -96 OFFCURVE",
"731 61 CURVE SMOOTH",
"731 245 OFFCURVE",
"606 392 OFFCURVE",
"373 485 CURVE",
"580 612 OFFCURVE",
"659 708 OFFCURVE",
"659 844 CURVE SMOOTH",
"659 1021 OFFCURVE",
"526 1118 OFFCURVE",
"287 1118 CURVE SMOOTH",
"210 1118 OFFCURVE",
"119 1102 OFFCURVE",
"63 1075 CURVE",
"115 928 LINE",
"150 945 OFFCURVE",
"227 967 OFFCURVE",
"287 967 CURVE SMOOTH",
"412 967 OFFCURVE",
"475 926 OFFCURVE",
"475 844 CURVE SMOOTH",
"475 803 OFFCURVE",
"465 767 OFFCURVE",
"445 737 CURVE SMOOTH",
"405 676 OFFCURVE",
"323 616 OFFCURVE",
"182 545 CURVE",
"182 393 LINE",
"245 384 OFFCURVE",
"305 363 OFFCURVE",
"362 330 CURVE SMOOTH",
"475 265 OFFCURVE",
"545 167 OFFCURVE",
"545 59 CURVE SMOOTH",
"545 -140 OFFCURVE",
"364 -290 OFFCURVE",
"49 -362 CURVE",
"49 -492 LINE"
);
}
);
width = 961;
}
);
note = g14;
},
{
glyphname = g15;
lastChange = "2016-11-10 13:51:47 +0000";
layers = (
{
layerId = "AE889829-B3B6-4023-A675-D1BEB04BAC8C";
paths = (
{
closed = 1;
nodes = (
"176 -389 OFFCURVE",
"285 -343 OFFCURVE",
"469 -307 CURVE SMOOTH",
"760 -247 OFFCURVE",
"901 -84 OFFCURVE",
"901 160 CURVE SMOOTH",
"901 409 OFFCURVE",
"731 575 OFFCURVE",
"467 575 CURVE SMOOTH",
"428 575 OFFCURVE",
"391 571 OFFCURVE",
"356 563 CURVE",
"356 1556 LINE",
"176 1556 LINE",
"176 350 LINE",
"229 391 OFFCURVE",
"340 424 OFFCURVE",
"424 424 CURVE SMOOTH",
"604 424 OFFCURVE",
"715 327 OFFCURVE",
"715 158 CURVE SMOOTH",
"715 -21 OFFCURVE",
"621 -115 OFFCURVE",
"406 -158 CURVE SMOOTH",
"260 -187 OFFCURVE",
"144 -232 OFFCURVE",
"57 -293 CURVE",
"57 -492 LINE"
);
}
);
width = 987;
}
);
note = g15;
},
{
glyphname = g16;
lastChange = "2016-11-10 13:51:47 +0000";
layers = (
{
layerId = "AE889829-B3B6-4023-A675-D1BEB04BAC8C";
paths = (
{
closed = 1;
nodes = (
"995 -20 OFFCURVE",
"1206 194 OFFCURVE",
"1206 551 CURVE SMOOTH",
"1206 903 OFFCURVE",
"1003 1118 OFFCURVE",
"664 1118 CURVE SMOOTH",
"571 1118 OFFCURVE",
"474 1102 OFFCURVE",
"373 1071 CURVE",
"350 1118 OFFCURVE",
"338 1161 OFFCURVE",
"338 1200 CURVE SMOOTH",
"338 1287 OFFCURVE",
"366 1374 OFFCURVE",
"422 1462 CURVE",
"262 1462 LINE",
"218 1399 OFFCURVE",
"178 1280 OFFCURVE",
"178 1196 CURVE SMOOTH",
"178 1127 OFFCURVE",
"186 1087 OFFCURVE",
"223 1012 CURVE",
"152 979 OFFCURVE",
"81 939 OFFCURVE",
"10 891 CURVE",
"96 760 LINE",
"161 803 OFFCURVE",
"227 841 OFFCURVE",
"295 874 CURVE",
"453 582 LINE",
"178 254 LINE",
"178 127 LINE",
"287 34 OFFCURVE",
"472 -20 OFFCURVE",
"664 -20 CURVE SMOOTH"
);
},
{
closed = 1;
nodes = (
"545 129 OFFCURVE",
"435 153 OFFCURVE",
"334 201 CURVE",
"639 563 LINE",
"444 932 LINE",
"517 955 OFFCURVE",
"590 967 OFFCURVE",
"664 967 CURVE SMOOTH",
"887 967 OFFCURVE",
"1020 810 OFFCURVE",
"1020 551 CURVE SMOOTH",
"1020 272 OFFCURVE",
"895 129 OFFCURVE",
"664 129 CURVE SMOOTH"
);
}
);
width = 1317;
}
);
note = g16;
},
{
glyphname = g17;
lastChange = "2016-11-10 13:51:47 +0000";
layers = (
{
layerId = "AE889829-B3B6-4023-A675-D1BEB04BAC8C";
paths = (
{
closed = 1;
nodes = (
"940 -492 LINE",
"940 -340 LINE",
"252 -340 LINE",
"412 -193 OFFCURVE",
"530 -27 OFFCURVE",
"598 193 CURVE",
"443 448 OFFCURVE",
"341 795 OFFCURVE",
"336 1098 CURVE",
"158 1098 LINE",
"167 787 OFFCURVE",
"263 451 OFFCURVE",
"422 170 CURVE",
"347 -49 OFFCURVE",
"207 -223 OFFCURVE",
"0 -354 CURVE",
"0 -492 LINE"
);
}
);
width = 821;
}
);
note = g17;
},
{
glyphname = g18;
lastChange = "2016-11-10 13:51:47 +0000";
layers = (
{
layerId = "AE889829-B3B6-4023-A675-D1BEB04BAC8C";
paths = (
{
closed = 1;
nodes = (
"538 152 OFFCURVE",
"727 369 OFFCURVE",
"727 694 CURVE SMOOTH",
"727 761 OFFCURVE",
"715 822 OFFCURVE",
"692 879 CURVE",
"783 938 OFFCURVE",
"873 967 OFFCURVE",
"961 967 CURVE SMOOTH",
"1109 967 OFFCURVE",
"1200 861 OFFCURVE",
"1200 698 CURVE SMOOTH",
"1200 475 OFFCURVE",
"1055 295 OFFCURVE",
"764 139 CURVE",
"764 -20 LINE",
"1133 117 OFFCURVE",
"1386 401 OFFCURVE",
"1386 694 CURVE SMOOTH",
"1386 962 OFFCURVE",
"1230 1118 OFFCURVE",
"975 1118 CURVE SMOOTH",
"838 1118 OFFCURVE",
"717 1079 OFFCURVE",
"612 1001 CURVE",
"533 1079 OFFCURVE",
"424 1118 OFFCURVE",
"285 1118 CURVE SMOOTH",
"214 1118 OFFCURVE",
"153 1105 OFFCURVE",
"104 1079 CURVE",
"104 928 LINE",
"163 954 OFFCURVE",
"224 967 OFFCURVE",
"285 967 CURVE SMOOTH",
"436 967 OFFCURVE",
"541 854 OFFCURVE",
"541 698 CURVE SMOOTH",
"541 431 OFFCURVE",
"410 275 OFFCURVE",
"98 139 CURVE",
"98 -20 LINE"
);
}
);
width = 1497;
}
);
note = g18;
},
{
glyphname = g19;
lastChange = "2016-11-10 13:51:47 +0000";
layers = (
{
layerId = "AE889829-B3B6-4023-A675-D1BEB04BAC8C";
paths = (
{
closed = 1;
nodes = (
"1120 -246 LINE",
"1120 0 LINE",
"1266 0 LINE",
"1266 152 LINE",
"1120 152 LINE",
"1120 432 LINE SMOOTH",
"1120 919 OFFCURVE",
"969 1118 OFFCURVE",
"610 1118 CURVE SMOOTH",
"294 1118 OFFCURVE",
"113 906 OFFCURVE",
"113 549 CURVE SMOOTH",
"113 196 OFFCURVE",
"333 0 OFFCURVE",
"733 0 CURVE SMOOTH",
"940 0 LINE",
"940 -246 LINE"
);
},
{
closed = 1;
nodes = (
"459 152 OFFCURVE",
"299 272 OFFCURVE",
"299 547 CURVE SMOOTH",
"299 827 OFFCURVE",
"403 967 OFFCURVE",
"612 967 CURVE SMOOTH",
"845 967 OFFCURVE",
"940 815 OFFCURVE",
"940 434 CURVE SMOOTH",
"940 152 LINE",
"756 152 LINE SMOOTH"
);
}
);
width = 1315;
}
);
note = g19;
},
{
glyphname = g20;
lastChange = "2016-11-10 13:51:47 +0000";
layers = (
{
layerId = "AE889829-B3B6-4023-A675-D1BEB04BAC8C";
paths = (
{
closed = 1;
nodes = (
"987 -492 LINE",
"987 -340 LINE",
"362 -340 LINE",
"541 -209 OFFCURVE",
"642 -45 OFFCURVE",
"645 184 CURVE",
"380 391 OFFCURVE",
"287 538 OFFCURVE",
"287 729 CURVE SMOOTH",
"287 873 OFFCURVE",
"369 967 OFFCURVE",
"496 967 CURVE SMOOTH",
"625 967 OFFCURVE",
"684 893 OFFCURVE",
"684 741 CURVE SMOOTH",
"684 510 OFFCURVE",
"787 395 OFFCURVE",
"993 395 CURVE SMOOTH",
"1198 395 OFFCURVE",
"1307 529 OFFCURVE",
"1307 766 CURVE SMOOTH",
"1307 818 OFFCURVE",
"1303 863 OFFCURVE",
"1296 901 CURVE",
"1130 901 LINE",
"1136 864 OFFCURVE",
"1139 819 OFFCURVE",
"1139 766 CURVE SMOOTH",
"1139 613 OFFCURVE",
"1094 547 OFFCURVE",
"999 547 CURVE SMOOTH",
"887 547 OFFCURVE",
"844 609 OFFCURVE",
"844 784 CURVE SMOOTH",
"844 995 OFFCURVE",
"716 1118 OFFCURVE",
"504 1118 CURVE SMOOTH",
"429 1118 OFFCURVE",
"362 1101 OFFCURVE",
"301 1068 CURVE SMOOTH",
"179 1001 OFFCURVE",
"106 876 OFFCURVE",
"106 733 CURVE SMOOTH",
"106 645 OFFCURVE",
"117 570 OFFCURVE",
"139 507 CURVE SMOOTH",
"182 382 OFFCURVE",
"280 262 OFFCURVE",
"457 119 CURVE",
"450 55 OFFCURVE",
"436 1 OFFCURVE",
"414 -43 CURVE SMOOTH",
"369 -132 OFFCURVE",
"286 -218 OFFCURVE",
"102 -362 CURVE",
"102 -492 LINE"
);
}
);
width = 1393;
}
);
note = g20;
},
{
glyphname = g21;
lastChange = "2016-11-10 13:51:47 +0000";
layers = (
{
layerId = "AE889829-B3B6-4023-A675-D1BEB04BAC8C";
paths = (
{
closed = 1;
nodes = (
"1460 0 LINE",
"1460 152 LINE",
"1069 152 LINE",
"1277 311 OFFCURVE",
"1384 498 OFFCURVE",
"1384 694 CURVE SMOOTH",
"1384 953 OFFCURVE",
"1230 1118 OFFCURVE",
"991 1118 CURVE SMOOTH",
"910 1118 OFFCURVE",
"839 1106 OFFCURVE",
"778 1083 CURVE",
"834 934 LINE",
"869 950 OFFCURVE",
"915 958 OFFCURVE",
"973 958 CURVE SMOOTH",
"1112 958 OFFCURVE",
"1196 858 OFFCURVE",
"1196 698 CURVE SMOOTH",
"1196 499 OFFCURVE",
"1077 317 OFFCURVE",
"840 152 CURVE",
"414 152 LINE",
"624 325 OFFCURVE",
"729 506 OFFCURVE",
"729 694 CURVE SMOOTH",
"729 953 OFFCURVE",
"575 1118 OFFCURVE",
"336 1118 CURVE SMOOTH",
"255 1118 OFFCURVE",
"184 1106 OFFCURVE",
"123 1083 CURVE",
"178 934 LINE",
"213 950 OFFCURVE",
"259 958 OFFCURVE",
"317 958 CURVE SMOOTH",
"457 958 OFFCURVE",
"541 855 OFFCURVE",
"541 698 CURVE SMOOTH",
"541 492 OFFCURVE",
"411 305 OFFCURVE",
"152 137 CURVE",
"152 0 LINE"
);
}
);
width = 1593;
}
);
note = g21;
},
{
glyphname = g22;
lastChange = "2016-11-10 13:51:47 +0000";
layers = (
{
layerId = "AE889829-B3B6-4023-A675-D1BEB04BAC8C";
paths = (
{
closed = 1;
nodes = (
"973 -492 LINE",
"973 -340 LINE",
"242 -340 LINE",
"422 -69 OFFCURVE",
"501 108 OFFCURVE",
"545 295 CURVE",
"531 400 OFFCURVE",
"508 516 OFFCURVE",
"477 641 CURVE",
"537 745 OFFCURVE",
"647 807 OFFCURVE",
"770 807 CURVE SMOOTH",
"927 807 OFFCURVE",
"1036 694 OFFCURVE",
"1036 522 CURVE SMOOTH",
"1036 414 OFFCURVE",
"962 291 OFFCURVE",
"846 223 CURVE",
"975 111 LINE",
"1128 224 OFFCURVE",
"1223 365 OFFCURVE",
"1223 522 CURVE SMOOTH",
"1223 609 OFFCURVE",
"1204 687 OFFCURVE",
"1167 755 CURVE SMOOTH",
"1092 890 OFFCURVE",
"947 967 OFFCURVE",
"774 967 CURVE SMOOTH",
"647 967 OFFCURVE",
"509 907 OFFCURVE",
"428 815 CURVE",
"391 932 OFFCURVE",
"353 1026 OFFCURVE",
"315 1098 CURVE",
"113 1098 LINE",
"238 871 OFFCURVE",
"338 548 OFFCURVE",
"362 289 CURVE",
"297 65 OFFCURVE",
"161 -191 OFFCURVE",
"20 -354 CURVE",
"20 -492 LINE"
);
}
);
width = 1329;
}
);
note = g22;
},
{
glyphname = g23;
lastChange = "2016-11-10 13:51:47 +0000";
layers = (
{
layerId = "AE889829-B3B6-4023-A675-D1BEB04BAC8C";
paths = (
{
closed = 1;
nodes = (
"545 -492 LINE",
"545 776 LINE SMOOTH",
"545 1007 OFFCURVE",
"459 1118 OFFCURVE",
"268 1118 CURVE SMOOTH",
"205 1118 OFFCURVE",
"133 1102 OFFCURVE",
"100 1085 CURVE",
"100 944 LINE",
"142 959 OFFCURVE",
"187 967 OFFCURVE",
"235 967 CURVE SMOOTH",
"323 967 OFFCURVE",
"364 906 OFFCURVE",
"364 774 CURVE SMOOTH",
"364 -492 LINE"
);
}
);
width = 845;
}
);
note = g23;
},
{
glyphname = g24;
lastChange = "2016-11-10 13:51:47 +0000";
layers = (
{
layerId = "AE889829-B3B6-4023-A675-D1BEB04BAC8C";
paths = (
{
closed = 1;
nodes = (
"1080 -492 LINE",
"1080 776 LINE SMOOTH",
"1080 1007 OFFCURVE",
"994 1118 OFFCURVE",
"803 1118 CURVE SMOOTH",
"740 1118 OFFCURVE",
"668 1102 OFFCURVE",
"635 1085 CURVE",
"635 944 LINE",
"677 959 OFFCURVE",
"722 967 OFFCURVE",
"770 967 CURVE SMOOTH",
"858 967 OFFCURVE",
"899 906 OFFCURVE",
"899 774 CURVE SMOOTH",
"899 -492 LINE"
);
},
{
closed = 1;
nodes = (
"545 -492 LINE",
"545 776 LINE SMOOTH",
"545 1007 OFFCURVE",
"459 1118 OFFCURVE",
"268 1118 CURVE SMOOTH",
"205 1118 OFFCURVE",
"133 1102 OFFCURVE",
"100 1085 CURVE",
"100 944 LINE",
"142 959 OFFCURVE",
"187 967 OFFCURVE",
"235 967 CURVE SMOOTH",
"323 967 OFFCURVE",
"364 906 OFFCURVE",
"364 774 CURVE SMOOTH",
"364 -492 LINE"
);
}
);
width = 1380;
}
);
note = g24;
},
{
glyphname = g25;
lastChange = "2016-11-10 13:51:47 +0000";
layers = (
{
layerId = "AE889829-B3B6-4023-A675-D1BEB04BAC8C";
paths = (
{
closed = 1;
nodes = (
"1614 -492 LINE",
"1614 776 LINE SMOOTH",
"1614 1007 OFFCURVE",
"1528 1118 OFFCURVE",
"1337 1118 CURVE SMOOTH",
"1274 1118 OFFCURVE",
"1202 1102 OFFCURVE",
"1169 1085 CURVE",
"1169 944 LINE",
"1211 959 OFFCURVE",
"1256 967 OFFCURVE",
"1304 967 CURVE SMOOTH",
"1392 967 OFFCURVE",
"1433 906 OFFCURVE",
"1433 774 CURVE SMOOTH",
"1433 -492 LINE"
);
},
{
closed = 1;
nodes = (
"545 -492 LINE",
"545 776 LINE SMOOTH",
"545 1007 OFFCURVE",
"459 1118 OFFCURVE",
"268 1118 CURVE SMOOTH",
"205 1118 OFFCURVE",
"133 1102 OFFCURVE",
"100 1085 CURVE",
"100 944 LINE",
"142 959 OFFCURVE",
"187 967 OFFCURVE",
"235 967 CURVE SMOOTH",
"323 967 OFFCURVE",
"364 906 OFFCURVE",
"364 774 CURVE SMOOTH",
"364 -492 LINE"
);
},
{
closed = 1;
nodes = (
"1080 -492 LINE",
"1080 776 LINE SMOOTH",
"1080 1007 OFFCURVE",
"994 1118 OFFCURVE",
"803 1118 CURVE SMOOTH",
"740 1118 OFFCURVE",
"668 1102 OFFCURVE",
"635 1085 CURVE",
"635 944 LINE",
"677 959 OFFCURVE",
"722 967 OFFCURVE",
"770 967 CURVE SMOOTH",
"858 967 OFFCURVE",
"899 906 OFFCURVE",
"899 774 CURVE SMOOTH",
"899 -492 LINE"
);
}
);
width = 1914;
}
);
note = g25;
},
{
glyphname = g26;
lastChange = "2016-11-10 13:51:47 +0000";
layers = (
{
layerId = "AE889829-B3B6-4023-A675-D1BEB04BAC8C";
paths = (
{
closed = 1;
nodes = (
"2149 -492 LINE",
"2149 776 LINE SMOOTH",
"2149 1007 OFFCURVE",
"2063 1118 OFFCURVE",
"1872 1118 CURVE SMOOTH",
"1809 1118 OFFCURVE",
"1737 1102 OFFCURVE",
"1704 1085 CURVE",
"1704 944 LINE",
"1746 959 OFFCURVE",
"1791 967 OFFCURVE",
"1839 967 CURVE SMOOTH",
"1927 967 OFFCURVE",
"1968 906 OFFCURVE",
"1968 774 CURVE SMOOTH",
"1968 -492 LINE"
);
},
{
closed = 1;
nodes = (
"545 -492 LINE",
"545 776 LINE SMOOTH",
"545 1007 OFFCURVE",
"459 1118 OFFCURVE",
"268 1118 CURVE SMOOTH",
"205 1118 OFFCURVE",
"133 1102 OFFCURVE",
"100 1085 CURVE",
"100 944 LINE",
"142 959 OFFCURVE",
"187 967 OFFCURVE",
"235 967 CURVE SMOOTH",
"323 967 OFFCURVE",
"364 906 OFFCURVE",
"364 774 CURVE SMOOTH",
"364 -492 LINE"
);
},
{
closed = 1;
nodes = (
"1080 -492 LINE",
"1080 776 LINE SMOOTH",
"1080 1007 OFFCURVE",
"994 1118 OFFCURVE",
"803 1118 CURVE SMOOTH",
"740 1118 OFFCURVE",
"668 1102 OFFCURVE",
"635 1085 CURVE",
"635 944 LINE",
"677 959 OFFCURVE",
"722 967 OFFCURVE",
"770 967 CURVE SMOOTH",
"858 967 OFFCURVE",
"899 906 OFFCURVE",
"899 774 CURVE SMOOTH",
"899 -492 LINE"
);
},
{
closed = 1;
nodes = (
"1614 -492 LINE",
"1614 776 LINE SMOOTH",
"1614 1007 OFFCURVE",
"1528 1118 OFFCURVE",
"1337 1118 CURVE SMOOTH",
"1274 1118 OFFCURVE",
"1202 1102 OFFCURVE",
"1169 1085 CURVE",
"1169 944 LINE",
"1211 959 OFFCURVE",
"1256 967 OFFCURVE",
"1304 967 CURVE SMOOTH",
"1392 967 OFFCURVE",
"1433 906 OFFCURVE",
"1433 774 CURVE SMOOTH",
"1433 -492 LINE"
);
}
);
width = 2449;
}
);
note = g26;
},
{
glyphname = g27;
lastChange = "2016-11-10 13:51:47 +0000";
layers = (
{
layerId = "AE889829-B3B6-4023-A675-D1BEB04BAC8C";
paths = (
{
closed = 1;
nodes = (
"953 0 LINE",
"953 776 LINE SMOOTH",
"953 864 OFFCURVE",
"938 932 OFFCURVE",
"908 980 CURVE SMOOTH",
"847 1075 OFFCURVE",
"719 1118 OFFCURVE",
"490 1118 CURVE SMOOTH",
"370 1118 OFFCURVE",
"223 1109 OFFCURVE",
"50 1090 CURVE",
"68 938 LINE",
"281 962 OFFCURVE",
"387 967 OFFCURVE",
"492 967 CURVE SMOOTH",
"564 967 OFFCURVE",
"620 961 OFFCURVE",
"660 948 CURVE SMOOTH",
"740 923 OFFCURVE",
"773 873 OFFCURVE",
"773 762 CURVE SMOOTH",
"773 0 LINE"
);
}
);
width = 1203;
}
);
note = g27;
},
{
glyphname = g28;
lastChange = "2016-11-10 13:51:47 +0000";
layers = (
{
layerId = "AE889829-B3B6-4023-A675-D1BEB04BAC8C";
paths = (
{
closed = 1;
nodes = (
"621 -430 OFFCURVE",
"796 -288 OFFCURVE",
"796 -37 CURVE SMOOTH",
"796 196 OFFCURVE",
"657 359 OFFCURVE",
"402 432 CURVE",
"595 533 OFFCURVE",
"695 649 OFFCURVE",
"695 793 CURVE SMOOTH",
"695 1010 OFFCURVE",
"578 1118 OFFCURVE",
"345 1118 CURVE SMOOTH",
"277 1118 OFFCURVE",
"219 1109 OFFCURVE",
"171 1090 CURVE",
"171 942 LINE",
"221 959 OFFCURVE",
"271 967 OFFCURVE",
"322 967 CURVE SMOOTH",
"451 967 OFFCURVE",
"511 913 OFFCURVE",
"511 793 CURVE SMOOTH",
"511 680 OFFCURVE",
"420 576 OFFCURVE",
"239 481 CURVE",
"239 348 LINE",
"486 288 OFFCURVE",
"611 155 OFFCURVE",
"611 -33 CURVE SMOOTH",
"611 -193 OFFCURVE",
"501 -279 OFFCURVE",
"310 -279 CURVE SMOOTH",
"260 -279 OFFCURVE",
"207 -274 OFFCURVE",
"150 -264 CURVE",
"150 -416 LINE",
"214 -425 OFFCURVE",
"268 -430 OFFCURVE",
"312 -430 CURVE SMOOTH"
);
}
);
width = 946;
}
);
note = g28;
},
{
glyphname = g29;
lastChange = "2016-11-10 13:51:47 +0000";
layers = (
{
layerId = "AE889829-B3B6-4023-A675-D1BEB04BAC8C";
paths = (
{
closed = 1;
nodes = (
"533 -492 LINE",
"626 -413 OFFCURVE",
"774 -196 OFFCURVE",
"881 23 CURVE",
"881 152 LINE",
"314 152 LINE",
"337 350 OFFCURVE",
"366 514 OFFCURVE",
"400 645 CURVE",
"457 568 OFFCURVE",
"540 530 OFFCURVE",
"649 530 CURVE SMOOTH",
"707 530 OFFCURVE",
"761 543 OFFCURVE",
"810 568 CURVE SMOOTH",
"909 619 OFFCURVE",
"969 714 OFFCURVE",
"969 834 CURVE SMOOTH",
"969 998 OFFCURVE",
"843 1118 OFFCURVE",
"668 1118 CURVE SMOOTH",
"631 1118 OFFCURVE",
"597 1113 OFFCURVE",
"566 1102 CURVE",
"629 1237 OFFCURVE",
"712 1389 OFFCURVE",
"815 1556 CURVE",
"649 1556 LINE",
"494 1316 OFFCURVE",
"377 1066 OFFCURVE",
"348 915 CURVE",
"247 746 OFFCURVE",
"181 463 OFFCURVE",
"150 0 CURVE",
"676 0 LINE",
"613 -137 OFFCURVE",
"423 -403 OFFCURVE",
"310 -492 CURVE"
);
},
{
closed = 1;
nodes = (
"544 682 OFFCURVE",
"492 746 OFFCURVE",
"492 854 CURVE SMOOTH",
"492 870 LINE",
"534 933 OFFCURVE",
"584 965 OFFCURVE",
"643 965 CURVE SMOOTH",
"736 965 OFFCURVE",
"789 916 OFFCURVE",
"789 829 CURVE SMOOTH",
"789 745 OFFCURVE",
"730 682 OFFCURVE",
"637 682 CURVE SMOOTH"
);
}
);
width = 1119;
}
);
note = g29;
},
{
glyphname = g30;
lastChange = "2016-11-10 13:51:47 +0000";
layers = (
{
layerId = "AE889829-B3B6-4023-A675-D1BEB04BAC8C";
paths = (
{
closed = 1;
nodes = (
"1454 -492 LINE",
"1454 -340 LINE",
"702 -340 LINE",
"702 498 LINE",
"1147 498 LINE",
"1147 1556 LINE",
"966 1556 LINE",
"966 649 LINE",
"702 649 LINE",
"702 776 LINE SMOOTH",
"702 1008 OFFCURVE",
"602 1118 OFFCURVE",
"397 1118 CURVE SMOOTH",
"209 1118 OFFCURVE",
"100 1002 OFFCURVE",
"100 803 CURVE SMOOTH",
"100 600 OFFCURVE",
"208 498 OFFCURVE",
"444 498 CURVE SMOOTH",
"522 498 LINE",
"522 -492 LINE"
);
},
{
closed = 1;
nodes = (
"325 649 OFFCURVE",
"280 700 OFFCURVE",
"280 803 CURVE SMOOTH",
"280 906 OFFCURVE",
"319 967 OFFCURVE",
"399 967 CURVE SMOOTH",
"481 967 OFFCURVE",
"522 907 OFFCURVE",
"522 786 CURVE SMOOTH",
"522 649 LINE",
"444 649 LINE SMOOTH"
);
}
);
width = 1413;
}
);
note = g30;
},
{
glyphname = g31;
lastChange = "2016-11-10 13:51:47 +0000";
layers = (
{
layerId = "AE889829-B3B6-4023-A675-D1BEB04BAC8C";
paths = (
{
closed = 1;
nodes = (
"176 -92 OFFCURVE",
"285 -46 OFFCURVE",
"469 -10 CURVE SMOOTH",
"760 50 OFFCURVE",
"901 213 OFFCURVE",
"901 457 CURVE SMOOTH",
"901 706 OFFCURVE",
"731 872 OFFCURVE",
"467 872 CURVE SMOOTH",
"428 872 OFFCURVE",
"391 868 OFFCURVE",
"356 860 CURVE",
"356 1556 LINE",
"176 1556 LINE",
"176 647 LINE",
"229 688 OFFCURVE",
"340 721 OFFCURVE",
"424 721 CURVE SMOOTH",
"604 721 OFFCURVE",
"715 624 OFFCURVE",
"715 455 CURVE SMOOTH",
"715 276 OFFCURVE",
"621 182 OFFCURVE",
"406 139 CURVE SMOOTH",
"260 110 OFFCURVE",
"144 65 OFFCURVE",
"57 4 CURVE",
"57 -195 LINE"
);
}
);
width = 1012;
}
);
note = g31;
},
{
glyphname = g32;
lastChange = "2016-11-10 13:51:47 +0000";
layers = (
{
layerId = "AE889829-B3B6-4023-A675-D1BEB04BAC8C";
paths = (
{
closed = 1;
nodes = (
"543 -720 LINE",
"543 688 LINE",
"362 688 LINE",
"362 -568 LINE",
"-1079 -568 LINE",
"-1079 -720 LINE"
);
}
);
width = 717;
}
);
note = g32;
},
{
glyphname = g33;
lastChange = "2016-11-10 13:51:47 +0000";
layers = (
{
layerId = "AE889829-B3B6-4023-A675-D1BEB04BAC8C";
paths = (
{
closed = 1;
nodes = (
"543 -295 LINE",
"543 688 LINE",
"362 688 LINE",
"362 -143 LINE",
"-1079 -143 LINE",
"-1079 -295 LINE"
);
}
